<?xml version="1.0" standalone="no"?>
<!DOCTYPE svg PUBLIC "-//W3C//DTD SVG 20010904//EN"
 "http://www.w3.org/TR/2001/REC-SVG-20010904/DTD/svg10.dtd">
<svg version="1.0" xmlns="http://www.w3.org/2000/svg"
 width="260.000000pt" height="260.000000pt" viewBox="0 0 260.000000 260.000000"
 preserveAspectRatio="xMidYMid meet">
<metadata>
Created by potrace 1.14, written by Peter Selinger 2001-2017
</metadata>
<g transform="translate(0.000000,260.000000) scale(0.100000,-0.100000)"
fill="#000000" stroke="none">
<path d="M120 2375 c0 -3 20 -25 44 -48 25 -23 127 -121 227 -217 100 -96 203
-195 229 -220 26 -25 132 -127 236 -227 104 -99 214 -204 244 -233 30 -29 99
-94 152 -146 l97 -95 77 73 c42 40 94 89 114 108 20 19 92 87 159 150 68 63
176 165 240 227 l116 111 3 -824 2 -824 210 0 210 0 0 1085 0 1085 -214 0
-214 0 -228 -224 c-126 -123 -283 -275 -349 -339 l-119 -117 -30 28 c-43 40
-107 102 -385 371 -139 135 -261 253 -273 263 -19 16 -44 18 -285 18 -144 0
-263 -2 -263 -5z"/>
<path d="M119 2228 c-4 -11 -3 -1905 0 -1988 l1 -25 194 0 c107 0 197 3 200 6
4 3 6 261 7 573 0 320 4 566 9 564 5 -2 44 -37 87 -78 44 -41 135 -127 203
-190 68 -63 147 -137 176 -165 47 -44 155 -146 309 -288 28 -26 52 -47 55 -47
6 0 51 42 295 275 81 77 181 172 223 212 l77 72 0 241 c0 132 -2 240 -6 240
-6 0 -29 -22 -333 -314 -217 -208 -247 -236 -257 -236 -3 0 -29 21 -57 48 -52
49 -326 309 -372 352 -23 21 -159 150 -340 321 -25 23 -117 110 -204 193 -88
83 -164 156 -171 161 -6 6 -30 27 -52 48 -27 26 -42 34 -44 25z"/>
</g>
</svg>
